<?xml version="1.0" encoding="utf-8"?>
<!-- Generator: Adobe Illustrator 16.0.0, SVG Export Plug-In . SVG Version: 6.00 Build 0)  -->
<!DOCTYPE svg PUBLIC "-//W3C//DTD SVG 1.1//EN" "http://www.w3.org/Graphics/SVG/1.1/DTD/svg11.dtd">
<svg version="1.1" id="Layer_1" xmlns="http://www.w3.org/2000/svg" xmlns:xlink="http://www.w3.org/1999/xlink" x="0px" y="0px"
	 width="876.943px" height="269.042px" viewBox="0 0 876.943 269.042" enable-background="new 0 0 876.943 269.042"
	 xml:space="preserve">
<g>
	<path fill="#F8C10B" d="M370.077,38.859l2.07-4.351c-2.19-1.41-5.311-2.371-8.402-2.371c-5.071,0-8.402,2.491-8.402,6.421
		c0,7.442,11.072,5.281,11.072,8.853c0,1.109-1.02,1.71-2.641,1.71c-2.19,0-5.461-1.32-7.622-3.181l-2.13,4.291
		c2.521,2.07,6.182,3.36,9.692,3.36c4.681,0,8.461-2.19,8.461-6.481c0-7.562-11.072-5.581-11.072-9.062c0-0.96,0.871-1.44,2.19-1.44
		C365.036,36.609,367.856,37.599,370.077,38.859z"/>
	<path fill="#F8C10B" d="M380.964,32.378v21.035h16.894v-4.381h-11.402v-3.961h10.022V40.69h-10.022v-3.931h11.102v-4.381H380.964z"
		/>
	<path fill="#F8C10B" d="M422.667,53.413h5.852l-8.822-21.035h-5.642l-9.032,21.035h5.641l1.47-3.721h9.092L422.667,53.413z
		 M413.785,45.491l2.941-7.501l2.88,7.501H413.785z"/>
	<path fill="#F8C10B" d="M450.896,38.859l2.07-4.351c-2.19-1.41-5.312-2.371-8.402-2.371c-5.071,0-8.401,2.491-8.401,6.421
		c0,7.442,11.072,5.281,11.072,8.853c0,1.109-1.021,1.71-2.641,1.71c-2.19,0-5.461-1.32-7.622-3.181l-2.13,4.291
		c2.521,2.07,6.182,3.36,9.692,3.36c4.681,0,8.462-2.19,8.462-6.481c0-7.562-11.073-5.581-11.073-9.062
		c0-0.96,0.871-1.44,2.191-1.44C445.855,36.609,448.676,37.599,450.896,38.859z"/>
	<path fill="#F8C10B" d="M471.806,32.228c-6.512,0-11.373,4.531-11.373,10.652c0,6.151,4.861,10.771,11.373,10.771
		c6.511,0,11.372-4.62,11.372-10.771C483.178,36.789,478.316,32.228,471.806,32.228z M471.865,36.909
		c3.15,0,5.671,2.581,5.671,6.001c0,3.421-2.521,6.062-5.671,6.062c-3.121,0-5.791-2.641-5.791-6.062
		C466.074,39.49,468.715,36.909,471.865,36.909z"/>
	<path fill="#F8C10B" d="M491.902,32.378v21.035h5.131V40.81l9.543,12.603h4.801V32.378h-5.102v12.663l-9.542-12.663H491.902z"/>
	<path fill="#F8C10B" d="M519.652,32.378v4.501h3.841v16.534h5.491V32.378H519.652z"/>
</g>
<g>
	<path fill="#F8C10B" d="M0,93.838v175.204h125.468v-43.488H51.987V93.838H0z"/>
	<path fill="#F8C10B" d="M286.715,269.042H342.2L269.969,93.838h-53.486l-74.731,175.204h53.486l10.497-27.992h70.732
		L286.715,269.042z M220.232,203.06l21.494-57.235l20.995,57.235H220.232z"/>
	<path fill="#F8C10B" d="M521.705,269.042l-35.491-57.234c18.995-10.748,29.492-29.742,29.492-55.736
		c0-39.739-26.992-62.233-73.98-62.233h-81.729v175.204h51.986v-47.237h27.493l23.244,47.237H521.705z M411.983,133.828h29.743
		c15.496,0,24.493,8.498,24.493,23.744c0,15.746-8.997,24.244-24.493,24.244h-29.743V133.828z"/>
	<path fill="#F8C10B" d="M520.748,93.838l66.982,175.204h53.986l67.732-175.204h-53.236l-39.989,121.219L576.234,93.838H520.748z"/>
	<path fill="#F8C10B" d="M821.458,269.042h55.485L804.712,93.838h-53.486l-74.73,175.204h53.486l10.497-27.992h70.731
		L821.458,269.042z M754.975,203.06l21.494-57.235l20.995,57.235H754.975z"/>
</g>
<path fill="#FF6A6A" d="M422.252,7.966c1.774-1.818,3.549-3.638,5.323-5.457h-1.727c1.996,1.819,3.992,3.638,5.988,5.457
	c0.508,0.463,1.215,0.457,1.727,0c2.041-1.818,4.081-3.638,6.122-5.457h-1.728c1.996,1.819,3.992,3.638,5.989,5.457
	c0.508,0.463,1.215,0.458,1.727,0c2.037-1.818,4.073-3.638,6.111-5.457h-1.728c1.968,1.819,3.936,3.638,5.904,5.457
	c1.153,1.065,2.885-0.658,1.728-1.728c-1.968-1.818-3.937-3.637-5.904-5.456c-0.506-0.467-1.219-0.455-1.728,0
	c-2.037,1.819-4.074,3.637-6.11,5.456h1.727c-1.995-1.818-3.992-3.637-5.988-5.456c-0.509-0.464-1.215-0.457-1.728,0
	c-2.041,1.819-4.081,3.637-6.121,5.456h1.727c-1.996-1.818-3.992-3.637-5.988-5.456c-0.483-0.44-1.248-0.491-1.727,0
	c-1.774,1.819-3.549,3.637-5.323,5.456C419.426,7.365,421.152,9.094,422.252,7.966"/>
<path fill="#FF6A6A" d="M422.252,15.832c1.774-1.818,3.549-3.638,5.323-5.457h-1.727c1.996,1.819,3.992,3.638,5.988,5.457
	c0.508,0.463,1.215,0.457,1.727,0c2.041-1.818,4.081-3.638,6.122-5.457h-1.728c1.996,1.819,3.992,3.638,5.989,5.457
	c0.508,0.463,1.215,0.458,1.727,0c2.037-1.818,4.073-3.638,6.111-5.457h-1.728c1.968,1.819,3.936,3.638,5.904,5.457
	c1.153,1.065,2.885-0.658,1.728-1.728c-1.968-1.818-3.937-3.637-5.904-5.456c-0.506-0.467-1.219-0.455-1.728,0
	c-2.037,1.819-4.074,3.637-6.11,5.456h1.727c-1.995-1.818-3.992-3.637-5.988-5.456c-0.509-0.464-1.215-0.457-1.728,0
	c-2.041,1.819-4.081,3.637-6.121,5.456h1.727c-1.996-1.818-3.992-3.637-5.988-5.456c-0.483-0.44-1.248-0.491-1.727,0
	c-1.774,1.819-3.549,3.637-5.323,5.456C419.426,15.23,421.152,16.959,422.252,15.832"/>
</svg>
